# xmcd CD database file
#
# Track frame offsets:
#	150
#	31617
#	56546
#	96903
#	117997
#	163474
#	187863
#	221432
#	258299
#	294229
#
# Disc length: 4209 seconds
#
# Revision: 0
# Processed by: cddbd v1.5PL3 Copyright (c) Steve Scherf et al.
# Submitted via: CDex 1.51
#
DISCID=85106f0a
DTITLE=Woody Shaw - Solid (Camden Compilation) Disc 2
DYEAR=1987
DGENRE=Jazz
TTITLE0=There Will Never be Another You
TTITLE1=You Stepped Out Of A Dream
TTITLE2=Speak Low
TTITLE3=Solid
TTITLE4=It Might As Well Be Spring
TTITLE5=If I Were A Bell
TTITLE6=Imagination
TTITLE7=Dat Dere
TTITLE8=Stormy Weather
TTITLE9=Steve's Blues
EXTD=YEAR: 1987
EXTT0=
EXTT1=
EXTT2=
EXTT3=
EXTT4=
EXTT5=
EXTT6=
EXTT7=
EXTT8=
EXTT9=
PLAYORDER=
